<?xml version="1.0" encoding="iso-8859-1"?>
<!-- Uploaded to: SVG Repo, www.svgrepo.com, Generator: SVG Repo Mixer Tools -->
<svg height="800px" width="800px" version="1.1" id="Layer_1" xmlns="http://www.w3.org/2000/svg" xmlns:xlink="http://www.w3.org/1999/xlink" 
	 viewBox="0 0 511.448 511.448" xml:space="preserve">
<path style="fill:#FFFFFF;" d="M309.299,476.099v9.389c0,5.181-4.209,9.389-9.389,9.389h-88.371c-5.181,0-9.389-4.209-9.389-9.389
	V25.959c0-5.181,4.209-9.389,9.389-9.389h88.371c5.181,0,9.389,4.209,9.389,9.389v9.389h-35.901c-4.573,0-8.285,3.712-8.285,8.285
	s3.712,8.285,8.285,8.285h35.901v18.779h-18.227c-4.573,0-8.285,3.712-8.285,8.285s3.712,8.285,8.285,8.285h18.227v18.779h-35.901
	c-4.573,0-8.285,3.712-8.285,8.285s3.712,8.285,8.285,8.285h35.901v18.779h-18.227c-4.573,0-8.285,3.712-8.285,8.285
	s3.712,8.285,8.285,8.285h18.227v18.779h-35.901c-4.573,0-8.285,3.712-8.285,8.285s3.712,8.285,8.285,8.285h35.901v18.779h-18.227
	c-4.573,0-8.285,3.712-8.285,8.285s3.712,8.285,8.285,8.285h18.227v18.779h-35.901c-4.573,0-8.285,3.712-8.285,8.285
	s3.712,8.285,8.285,8.285h35.901v18.779h-18.227c-4.573,0-8.285,3.712-8.285,8.285s3.712,8.285,8.285,8.285h18.227v18.779h-35.901
	c-4.573,0-8.285,3.712-8.285,8.285c0,4.573,3.712,8.285,8.285,8.285h35.901v18.779h-18.227c-4.573,0-8.285,3.712-8.285,8.285
	s3.712,8.285,8.285,8.285h18.227v18.779h-35.901c-4.573,0-8.285,3.712-8.285,8.285c0,4.573,3.712,8.285,8.285,8.285h35.901v18.779
	h-18.227c-4.573,0-8.285,3.712-8.285,8.285s3.712,8.285,8.285,8.285h18.227v18.779h-35.901c-4.573,0-8.285,3.712-8.285,8.285
	c0,4.573,3.712,8.285,8.285,8.285H309.299z"/>
<path style="fill:#535757;" d="M325.868,25.959v459.53c0,14.316-11.643,25.959-25.959,25.959h-88.371
	c-14.316,0-25.959-11.643-25.959-25.959V25.959C185.579,11.643,197.222,0,211.538,0h88.371C314.225,0,325.868,11.643,325.868,25.959
	z M309.299,485.489v-9.389h-35.901c-4.573,0-8.285-3.712-8.285-8.285c0-4.573,3.712-8.285,8.285-8.285h35.901v-18.779h-18.227
	c-4.573,0-8.285-3.712-8.285-8.285s3.712-8.285,8.285-8.285h18.227v-18.779h-35.901c-4.573,0-8.285-3.712-8.285-8.285
	c0-4.573,3.712-8.285,8.285-8.285h35.901v-18.779h-18.227c-4.573,0-8.285-3.712-8.285-8.285s3.712-8.285,8.285-8.285h18.227v-18.779
	h-35.901c-4.573,0-8.285-3.712-8.285-8.285c0-4.573,3.712-8.285,8.285-8.285h35.901v-18.779h-18.227
	c-4.573,0-8.285-3.712-8.285-8.285s3.712-8.285,8.285-8.285h18.227v-18.779h-35.901c-4.573,0-8.285-3.712-8.285-8.285
	s3.712-8.285,8.285-8.285h35.901V228.66h-18.227c-4.573,0-8.285-3.712-8.285-8.285s3.712-8.285,8.285-8.285h18.227v-18.779h-35.901
	c-4.573,0-8.285-3.712-8.285-8.285s3.712-8.285,8.285-8.285h35.901v-18.779h-18.227c-4.573,0-8.285-3.712-8.285-8.285
	s3.712-8.285,8.285-8.285h18.227v-18.779h-35.901c-4.573,0-8.285-3.712-8.285-8.285s3.712-8.285,8.285-8.285h35.901V87.266h-18.227
	c-4.573,0-8.285-3.712-8.285-8.285s3.712-8.285,8.285-8.285h18.227V51.918h-35.901c-4.573,0-8.285-3.712-8.285-8.285
	s3.712-8.285,8.285-8.285h35.901v-9.389c0-5.181-4.209-9.389-9.389-9.389h-88.371c-5.181,0-9.389,4.209-9.389,9.389v459.53
	c0,5.181,4.209,9.389,9.389,9.389h88.371C305.09,494.878,309.299,490.669,309.299,485.489z"/>
</svg>