<?xml version="1.0" ?><!-- Uploaded to: SVG Repo, www.svgrepo.com, Generator: SVG Repo Mixer Tools -->
<svg width="800px" height="800px" viewBox="0 0 64 64" data-name="Layer 1" id="Layer_1" xmlns="http://www.w3.org/2000/svg"><defs><style>.cls-1{fill:#231f20;}</style></defs><title/><path class="cls-1" d="M32,53.55A17,17,0,0,1,17.45,27.86a15.49,15.49,0,0,1-.23-2.63,14.78,14.78,0,0,1,29.56,0,15.49,15.49,0,0,1-.23,2.63A17,17,0,0,1,32,53.55Zm0-41.1a12.79,12.79,0,0,0-12.51,15.4,1,1,0,0,1-.14.74,15,15,0,1,0,25.3,0,1,1,0,0,1-.14-.74A12.79,12.79,0,0,0,32,12.45ZM42.77,25.8a1,1,0,0,1-.68-.26,14.95,14.95,0,0,0-20.18,0,1,1,0,0,1-1.68-.78,11.78,11.78,0,0,1,23.54,0,1,1,0,0,1-.58.95A1,1,0,0,1,42.77,25.8ZM32,19.62a16.88,16.88,0,0,1,9.38,2.83,9.78,9.78,0,0,0-18.76,0A16.88,16.88,0,0,1,32,19.62Z"/><path class="cls-1" d="M42.77,25.8a1,1,0,0,1-.68-.26,14.95,14.95,0,0,0-20.18,0,1,1,0,0,1-1.68-.78,11.78,11.78,0,0,1,23.54,0,1,1,0,0,1-.58.95A1,1,0,0,1,42.77,25.8ZM32,19.62a16.88,16.88,0,0,1,9.38,2.83,9.78,9.78,0,0,0-18.76,0A16.88,16.88,0,0,1,32,19.62Z"/><path class="cls-1" d="M42.77,25.8a1,1,0,0,1-.68-.26,14.95,14.95,0,0,0-20.18,0,1,1,0,0,1-1.68-.78,11.78,11.78,0,0,1,23.54,0,1,1,0,0,1-.58.95A1,1,0,0,1,42.77,25.8ZM32,19.62a16.88,16.88,0,0,1,9.38,2.83,9.78,9.78,0,0,0-18.76,0A16.88,16.88,0,0,1,32,19.62Z"/><path class="cls-1" d="M32.93,49.16h-.06C20.88,48.47,20,37.4,20,37.29a1,1,0,1,1,2-.12h0c0,.38.76,9.41,11,10a1,1,0,0,1-.06,2Z"/></svg>